<?xml version="1.0" encoding="UTF-8" standalone="no"?>
<!-- Generator: Gravit.io -->

<svg
   style="isolation:isolate"
   viewBox="0 0 286.946 286.946"
   width="286.946"
   height="286.946"
   version="1.1"
   id="svg13"
   xmlns="http://www.w3.org/2000/svg"
   xmlns:svg="http://www.w3.org/2000/svg"
   xmlns:rdf="http://www.w3.org/1999/02/22-rdf-syntax-ns#"
   xmlns:cc="http://creativecommons.org/ns#"
   xmlns:dc="http://purl.org/dc/elements/1.1/">
  <metadata
     id="metadata17">
    <rdf:RDF>
      <cc:Work
         rdf:about="">
        <dc:format>image/svg+xml</dc:format>
        <dc:type
           rdf:resource="http://purl.org/dc/dcmitype/StillImage" />
      </cc:Work>
    </rdf:RDF>
  </metadata>
  <defs
     id="defs5">
    <clipPath
       id="_clipPath_cahPDPLxRC2JIca6hj5ALKeWc4NkyQEn">
      <rect
         width="286.946"
         height="286.946"
         id="rect2" />
    </clipPath>
  </defs>
  <g
     clip-path="url(#_clipPath_cahPDPLxRC2JIca6hj5ALKeWc4NkyQEn)"
     id="g11">
    <circle
       vector-effect="non-scaling-stroke"
       cx="143.47283813747222"
       cy="143.47283813747222"
       r="143.47283813747225"
       fill="rgb(53,183,41)"
       id="circle7"
       style="fill:#0099ff;fill-opacity:1" />
    <path
       style="fill:#ffffff;stroke-width:0.396563"
       d="m 67.619489,225.174 c -8.512573,-18.9729 -20.236676,-45.78325 -20.086564,-45.93336 0.433171,-0.43317 17.754476,-6.03519 17.900733,-5.78942 0.326756,0.54902 19.626018,43.53777 19.748432,43.98924 0.07027,0.25927 -3.583778,2.70436 -8.120174,5.43356 l -8.247992,4.96217 z m 80.347381,-10.60417 c -2.39921,-0.51327 -8.47152,-2.2722 -13.49404,-3.90874 -14.26584,-4.64841 -18.5259,-5.5483 -26.16227,-5.52645 -6.28623,0.018 -10.464458,1.01459 -16.398764,3.9115 -2.476022,1.2087 -4.543541,2.14153 -4.594474,2.07294 -0.05093,-0.0685 -3.421336,-7.60432 -7.489775,-16.74606 l -7.397153,-16.62137 1.645489,-1.42225 c 10.152745,-8.77536 18.086529,-13.772 26.148157,-16.46794 8.18276,-2.73643 16.11029,-2.80151 25.00706,-0.20526 6.12441,1.78721 56.60485,16.26656 58.35426,16.73779 2.3043,0.62071 2.84936,1.77766 2.84151,6.03129 -0.005,2.76827 -0.18591,3.94723 -0.79313,5.17189 l -0.7865,1.58625 -2.83308,0.11562 c -1.81986,0.0744 -5.64918,-0.34285 -10.7072,-1.16641 -7.74943,-1.26178 -8.11277,-1.28387 -22.94353,-1.39535 -9.60653,-0.0722 -14.74967,0.0212 -14.18744,0.25756 2.60088,1.09355 35.2004,6.39937 42.93827,6.98854 8.92205,0.67934 12.47243,-2.4178 15.41255,-13.44496 0.74605,-2.79816 1.46874,-4.6366 2.08476,-5.3035 0.51858,-0.56141 4.42272,-3.89106 8.67586,-7.39923 4.25314,-3.50817 8.8037,-7.28221 10.11236,-8.38675 1.30865,-1.10453 3.36087,-2.4504 4.56047,-2.99083 1.91417,-0.86234 2.7392,-0.98259 6.74157,-0.98259 4.19138,0 4.74336,0.0899 6.82019,1.10967 2.34351,1.15083 3.88702,2.97781 3.88702,4.60089 0,1.66094 -1.21664,3.72364 -5.7124,9.68495 -7.47704,9.91445 -13.67316,15.96982 -23.69817,23.15993 -8.69218,6.23418 -26.80302,16.72243 -32.41833,18.77393 -8.0963,2.95791 -17.12765,3.58022 -25.61327,1.7649 z m 2.89608,-80.4641 c -3.95691,-5.21166 -10.0534,-11.46367 -18.79002,-19.26932 C 115.3649,99.908746 111.2264,95.426939 107.71367,88.456403 c -2.81821,-5.592383 -3.65536,-9.08952 -3.70219,-15.46596 -0.034,-4.61877 0.0719,-5.468846 1.0168,-8.167759 3.12048,-8.912942 9.65066,-14.892677 18.38588,-16.836079 3.9905,-0.887804 9.64656,-0.632548 13.25066,0.598 5.9709,2.038637 11.29903,6.634392 14.23558,12.278801 0.91691,1.762401 1.7919,3.203603 1.94444,3.202666 0.15254,-7.93e-4 0.97799,-1.383949 1.83431,-3.073363 3.13371,-6.182359 9.60859,-11.300336 16.48666,-13.031637 3.8117,-0.959453 9.94673,-0.583659 13.87138,0.849673 8.22834,3.005101 14.16103,9.580519 16.09135,17.834689 0.47767,2.042514 0.60555,4.033248 0.48403,7.534698 -0.14398,4.148459 -0.34122,5.267338 -1.53797,8.724388 -1.66157,4.799781 -4.32423,9.382012 -7.8723,13.547584 -1.45603,1.709435 -6.65104,6.751826 -11.54448,11.205316 -11.43421,10.40618 -21.29736,20.29577 -24.75115,24.81748 -1.49937,1.96299 -2.82849,3.68497 -2.95359,3.82661 -0.12509,0.14165 -1.06566,-0.84645 -2.09013,-2.19578 z"
       id="path1501" />
  </g>
</svg>
