<?xml version="1.0" encoding="UTF-8" standalone="no"?>
<!-- Generator: Gravit.io -->

<svg
   xmlns:dc="http://purl.org/dc/elements/1.1/"
   xmlns:cc="http://creativecommons.org/ns#"
   xmlns:rdf="http://www.w3.org/1999/02/22-rdf-syntax-ns#"
   xmlns:svg="http://www.w3.org/2000/svg"
   xmlns="http://www.w3.org/2000/svg"
   xmlns:sodipodi="http://sodipodi.sourceforge.net/DTD/sodipodi-0.dtd"
   xmlns:inkscape="http://www.inkscape.org/namespaces/inkscape"
   style="isolation:isolate"
   viewBox="0 0 286.946 286.946"
   width="286.946"
   height="286.946"
   version="1.1"
   id="svg13"
   sodipodi:docname="volunteer-icon.svg"
   inkscape:version="0.92.5 (0.92.5+69)">
  <metadata
     id="metadata17">
    <rdf:RDF>
      <cc:Work
         rdf:about="">
        <dc:format>image/svg+xml</dc:format>
        <dc:type
           rdf:resource="http://purl.org/dc/dcmitype/StillImage" />
        <dc:title></dc:title>
      </cc:Work>
    </rdf:RDF>
  </metadata>
  <sodipodi:namedview
     pagecolor="#ffffff"
     bordercolor="#666666"
     borderopacity="1"
     objecttolerance="10"
     gridtolerance="10"
     guidetolerance="10"
     inkscape:pageopacity="0"
     inkscape:pageshadow="2"
     inkscape:window-width="1853"
     inkscape:window-height="1025"
     id="namedview15"
     showgrid="false"
     inkscape:zoom="0.82245436"
     inkscape:cx="143.47301"
     inkscape:cy="143.47301"
     inkscape:window-x="67"
     inkscape:window-y="27"
     inkscape:window-maximized="1"
     inkscape:current-layer="g11" />
  <defs
     id="defs5">
    <clipPath
       id="_clipPath_cahPDPLxRC2JIca6hj5ALKeWc4NkyQEn">
      <rect
         width="286.946"
         height="286.946"
         id="rect2" />
    </clipPath>
  </defs>
  <g
     clip-path="url(#_clipPath_cahPDPLxRC2JIca6hj5ALKeWc4NkyQEn)"
     id="g11">
    <circle
       vector-effect="non-scaling-stroke"
       cx="143.47283813747222"
       cy="143.47283813747222"
       r="143.47283813747225"
       fill="rgb(53,183,41)"
       id="circle7"
       style="fill:#0099ff;fill-opacity:1" />
    <path
       d=" M 208.431 95.672 L 208.431 95.672 C 208.431 91.133 204.491 87.503 199.372 87.503 C 194.253 87.503 189.934 91.133 189.514 95.672 L 189.514 95.672 L 187.345 139.934 C 185.139 137.161 182.689 134.591 180.026 132.255 L 183.635 60.739 L 183.635 60.739 C 183.635 56.609 179.556 53.3 174.307 53.3 C 169.058 53.3 164.649 56.599 164.229 60.729 L 164.229 60.729 L 162.349 121.937 C 160.88 121.567 156.6 121.107 155.101 120.937 L 153.231 50.69 L 153.231 50.69 C 153.045 48.22 151.866 45.931 149.963 44.345 C 148.06 42.759 145.596 42.011 143.133 42.272 C 137.885 42.835 133.91 47.272 133.925 52.55 L 133.925 52.55 L 136.544 124.027 C 133.934 124.964 131.447 126.213 129.136 127.746 L 116.768 60.439 L 116.768 60.439 C 115.498 54.66 110.609 50.95 105.63 52.13 C 100.651 53.31 97.472 58.899 98.351 64.768 L 98.351 64.768 C 98.351 64.768 112.759 139.754 112.549 139.574 C 111.637 146.193 110.335 152.754 108.649 159.22 C 106.37 168.498 100.321 171.368 92.552 169.568 C 81.555 149.572 73.556 139.574 61.558 144.573 C 53.56 147.892 59.179 163.769 60.299 167.288 C 64.648 181.006 91.373 216.609 98.401 227.087 C 98.831 227.787 99.301 228.477 99.791 229.167 C 100.121 229.667 100.311 229.936 100.311 229.936 L 100.311 229.936 C 112.309 247.153 148.592 245.933 170.768 243.124 C 198.512 239.655 205.521 184.645 204.441 180.706 L 208.431 95.672 Z  M 175.347 207.861 L 149.222 226.647 L 148.902 226.877 L 148.582 226.657 L 122.187 208.261 C 115.038 204.511 106.26 194.673 106.69 186.075 C 107.203 175.656 115.157 167.128 125.515 165.892 C 135.872 164.655 145.61 171.071 148.562 181.076 C 151.33 170.979 160.997 164.367 171.411 165.451 C 181.824 166.534 189.924 174.994 190.554 185.445 C 191.064 194.023 182.435 204.001 175.347 207.861 Z "
       fill="rgb(255,255,255)"
       id="path9" />
  </g>
</svg>
